<svg xmlns="http://www.w3.org/2000/svg" viewBox="0 0 1200 720" role="img" aria-label="하카타 라멘">
  <defs>
    <linearGradient id="bg" x1="0" x2="1" y1="0" y2="1">
      <stop offset="0%" stop-color="#f8fbff"/>
      <stop offset="100%" stop-color="#eef4ff"/>
    </linearGradient>
  </defs>
  <rect width="1200" height="720" fill="url(#bg)"/>
  <ellipse cx="600" cy="420" rx="300" ry="160" fill="#e7eef9"/>
  <ellipse cx="600" cy="398" rx="280" ry="145" fill="#ffffff"/>
  <ellipse cx="600" cy="388" rx="236" ry="112" fill="#f4dfb5"/>
  <path d="M448 350c44 52 105 67 141 124" fill="none" stroke="#f0c54a" stroke-width="18" stroke-linecap="round"/>
  <path d="M524 328c33 45 91 82 115 148" fill="none" stroke="#f0c54a" stroke-width="18" stroke-linecap="round"/>
  <path d="M608 322c22 46 61 88 80 148" fill="none" stroke="#f0c54a" stroke-width="18" stroke-linecap="round"/>
  <path d="M684 340c17 38 47 74 61 124" fill="none" stroke="#f0c54a" stroke-width="18" stroke-linecap="round"/>
  <ellipse cx="524" cy="358" rx="52" ry="16" fill="#b96e4b"/>
  <ellipse cx="704" cy="366" rx="58" ry="17" fill="#b96e4b"/>
  <circle cx="595" cy="354" r="16" fill="#5ca65e"/>
  <circle cx="640" cy="390" r="13" fill="#3d8e4f"/>
  <text x="80" y="120" fill="#1d4ed8" font-size="54" font-weight="700" font-family="Noto Sans KR, sans-serif">하카타 라멘</text>
  <text x="80" y="176" fill="#61708a" font-size="28" font-family="Noto Sans KR, sans-serif">가볍고 빠르게 먹기 좋은 한 끼</text>
</svg>
