<svg xmlns="http://www.w3.org/2000/svg" viewBox="0 0 1200 720" role="img" aria-label="모츠나베">
  <defs>
    <linearGradient id="bg" x1="0" x2="1" y1="0" y2="1">
      <stop offset="0%" stop-color="#f8fbff"/>
      <stop offset="100%" stop-color="#e7f0ff"/>
    </linearGradient>
  </defs>
  <rect width="1200" height="720" fill="url(#bg)"/>
  <ellipse cx="600" cy="410" rx="350" ry="200" fill="#243245"/>
  <ellipse cx="600" cy="390" rx="305" ry="165" fill="#f5d1a6"/>
  <ellipse cx="600" cy="395" rx="270" ry="138" fill="#e4a765"/>
  <path d="M430 330c60 15 95 48 135 78 55 41 100 57 205 44" fill="none" stroke="#ffd6b0" stroke-width="34" stroke-linecap="round"/>
  <path d="M465 430c90-40 150-20 255 22" fill="none" stroke="#f1c232" stroke-width="26" stroke-linecap="round"/>
  <g fill="#5ba45d">
    <path d="M452 270l35 80-56-34z"/>
    <path d="M560 255l32 86-61-27z"/>
    <path d="M695 265l35 82-58-24z"/>
    <path d="M795 295l28 74-56-16z"/>
  </g>
  <g fill="#f8f1e7">
    <circle cx="485" cy="390" r="15"/>
    <circle cx="760" cy="380" r="13"/>
    <circle cx="650" cy="470" r="12"/>
  </g>
  <text x="80" y="120" fill="#1d4ed8" font-size="54" font-weight="700" font-family="Noto Sans KR, sans-serif">모츠나베</text>
  <text x="80" y="176" fill="#61708a" font-size="28" font-family="Noto Sans KR, sans-serif">후쿠오카 대표 저녁 메뉴</text>
</svg>
